HIERARCHY
ROOT Hips
{
  OFFSET 3.92544 6.39728 0
  CHANNELS 6 Xposition Yposition Zposition Zrotation Xrotation Yrotation
  JOINT BN_Spine_01
  {
    OFFSET 5.06197 -0.168311 0
    CHANNELS 6 Xposition Yposition Zposition Zrotation Xrotation Yrotation
    JOINT BN_Spine_02
    {
      OFFSET 14.8952 0 0
      CHANNELS 6 Xposition Yposition Zposition Zrotation Xrotation Yrotation
      JOINT BN_Spine_03
      {
        OFFSET 14.3786 0 0
        CHANNELS 6 Xposition Yposition Zposition Zrotation Xrotation Yrotation
        JOINT BN__Neck_01
        {
          OFFSET 15.3325 0 0
          CHANNELS 6 Xposition Yposition Zposition Zrotation Xrotation Yrotation
          JOINT BN__Neck_02
          {
            OFFSET 11.0839 0 0
            CHANNELS 6 Xposition Yposition Zposition Zrotation Xrotation Yrotation
            JOINT BN__Neck_R_01
            {
              OFFSET 3.85383 1.1973 3.491
              CHANNELS 6 Xposition Yposition Zposition Zrotation Xrotation Yrotation
              End Site
              {
                OFFSET 0 0 0
              }
            }
            JOINT BN__Neck_L_01
            {
              OFFSET 3.85383 1.1973 -3.49098
              CHANNELS 6 Xposition Yposition Zposition Zrotation Xrotation Yrotation
              End Site
              {
                OFFSET 0 0 0
              }
            }
            JOINT BN_Head_01
            {
              OFFSET 9.67523 0 0
              CHANNELS 6 Xposition Yposition Zposition Zrotation Xrotation Yrotation
              JOINT BN_Mouth_01
              {
                OFFSET 1.08197 -0.588672 0
                CHANNELS 6 Xposition Yposition Zposition Zrotation Xrotation Yrotation
                JOINT BN_Tongue_01
                {
                  OFFSET 2.17792 0.065941 0
                  CHANNELS 6 Xposition Yposition Zposition Zrotation Xrotation Yrotation
                  JOINT BN_Tongue_02
                  {
                    OFFSET 3.80658 -0.000201226 0
                    CHANNELS 6 Xposition Yposition Zposition Zrotation Xrotation Yrotation
                    End Site
                    {
                      OFFSET 0 0 0
                    }
                  }
                }
              }
            }
          }
        }
      }
    }
  }
  JOINT BN_Tail_01
  {
    OFFSET 4.67587 -0.164094 0
    CHANNELS 6 Xposition Yposition Zposition Zrotation Xrotation Yrotation
    JOINT BN_Tail_02
    {
      OFFSET 13.1147 2.52724e-005 0
      CHANNELS 6 Xposition Yposition Zposition Zrotation Xrotation Yrotation
      JOINT BN_Tail_03
      {
        OFFSET 13.4995 9.10759e-005 0
        CHANNELS 6 Xposition Yposition Zposition Zrotation Xrotation Yrotation
        JOINT BN_Tail_04
        {
          OFFSET 13.2851 0 0
          CHANNELS 6 Xposition Yposition Zposition Zrotation Xrotation Yrotation
          JOINT BN_Tail_05
          {
            OFFSET 14.6528 0.000106812 0
            CHANNELS 6 Xposition Yposition Zposition Zrotation Xrotation Yrotation
            JOINT BN_Tail_06
            {
              OFFSET 13.1048 0 0
              CHANNELS 6 Xposition Yposition Zposition Zrotation Xrotation Yrotation
              JOINT BN_Tail_07
              {
                OFFSET 11.869 0.000113964 0
                CHANNELS 6 Xposition Yposition Zposition Zrotation Xrotation Yrotation
                End Site
                {
                  OFFSET 0 0 0
                }
              }
            }
          }
        }
      }
    }
  }
}
MOTION
Frames:	4
Frame Time:	0.0333333
0 4 2.41446e-007 0 0 -0 4.98225 -0.165661 4.5759e-012 -3.95725e-006 -6.41846e-006 58.3451 14.6606 0 -9.53674e-007 1.55577 3.85465 -60.3973 14.1522 7.15256e-007 -1.90735e-006 0.116847 -8.36075 -34.5431 15.0911 0 0 4.85782 12.0677 28.3644 10.9094 -1.43051e-006 -4.76837e-007 -6.5522 -1.46156 -0.108181 3.01572 3.42918 -3.53546 -87.4279 -9.71681 -71.5329 3.94298 2.99421 5.64643 92.0571 1.15135 101.681 9.52289 -7.15257e-007 -1.43051e-006 -6.87334 0.485944 2.9374 1.06491 -0.579398 -9.53675e-007 0.0629371 2.29909e-006 8.81061e-006 1.57193 0.0146218 0.0423203 6.95617 -0.377771 -0.162716 2.92565 0.00628782 0 -0.993293 -0.153382 -0.0572715 4.60224 -0.16151 3.89377e-012 -178.948 -9.70982e-005 -35.1529 12.9082 2.38419e-007 9.53674e-007 -1.04947 -0.00134503 44.3879 13.2869 -2.38419e-007 -3.8147e-006 1.55501 0.000843369 35.9536 13.0759 -4.76837e-007 0 3.18134 2.62772 54.8311 14.4221 -4.76837e-007 -7.10543e-015 1.30522 -1.51939 43.6334 12.8984 0 1.90735e-006 -0.563382 3.56226 -54.4364 11.6821 -9.53675e-007 4.76837e-006 0.575997 0.626549 -72.9117 
0 4 2.41446e-007 0 0 -0 4.98225 -0.165661 5.20999e-012 -9.47543e-005 -5.96711e-005 58.3453 14.6606 -1.79925e-007 -5.51904e-007 1.55558 3.85472 -60.3917 14.1522 2.68817e-007 -1.55184e-006 0.10992 -8.35855 -34.5502 15.0911 2.68278e-007 1.74002e-006 4.83748 12.0593 28.3717 10.9093 1.03593e-006 -1.73933e-006 -6.54227 -1.46972 -0.149115 3.01572 3.42918 -3.53546 -87.428 -9.71684 -71.5329 3.94297 2.99421 5.64643 92.0572 1.15135 101.681 9.52288 5.06867e-007 -1.86399e-006 -6.79487 0.487127 2.92583 1.06492 -0.579398 -5.5349e-007 0.0629918 1.0041e-005 1.17301e-005 1.57213 0.0150903 0.0427349 6.978 -0.379025 -0.182546 2.92562 0.00517888 -0.000993135 -1.00522 -0.155457 -0.0473664 4.60224 -0.16151 4.36692e-012 -178.948 -9.32341e-005 -35.1509 12.9082 -1.16994e-007 -1.92965e-006 -1.04947 -0.00133324 44.3855 13.2869 -7.82637e-007 -4.03892e-007 1.555 0.00084393 35.9549 13.0759 -3.30302e-007 5.3438e-006 3.1814 2.62759 54.8277 14.4221 -4.01353e-007 -6.09415e-007 1.32276 -1.49839 43.8404 12.8984 -7.24089e-007 -4.80383e-006 -0.563292 3.56227 -54.4396 11.6821 -2.07829e-006 3.83914e-006 0.576832 0.627855 -72.8672 
0 4 2.41446e-007 0 0 -0 4.98225 -0.165661 4.5759e-012 0.00151011 0.000854543 58.3432 14.6606 -6.32408e-008 -1.78933e-006 1.55511 3.8549 -60.3771 14.1522 3.7581e-008 -5.31774e-007 0.0971772 -8.35892 -34.5701 15.091 2.31364e-007 6.86997e-007 4.81668 12.0511 28.3831 10.9093 1.09897e-006 1.7687e-007 -6.53223 -1.4783 -0.182274 3.01571 3.42917 -3.53545 -87.428 -9.71685 -71.5329 3.94296 2.9942 5.64642 92.0571 1.1514 101.681 9.52285 1.73449e-008 -7.66273e-007 -6.68447 0.486037 2.89787 1.06491 -0.579398 -8.65522e-007 0.0629371 -1.72819e-005 1.01875e-005 1.57203 0.0146467 0.042401 6.95614 -0.377762 -0.162717 2.92563 0.00534958 -0.000838311 -0.993273 -0.153389 -0.0572989 4.60224 -0.16151 3.89377e-012 -178.948 -6.98617e-006 -35.1457 12.9082 -1.92807e-007 -3.95548e-007 -1.04947 -0.00124872 44.3766 13.2869 -1.30804e-007 2.64699e-006 1.55502 0.000984003 35.9645 13.0759 -2.64378e-007 4.78911e-006 3.18169 2.62724 54.8155 14.4221 9.64177e-007 -6.95392e-006 1.34126 -1.46829 44.0728 12.8984 3.77069e-007 -3.72232e-006 -0.562746 3.56235 -54.4559 11.6821 -5.0179e-007 1.85321e-006 0.576264 0.635093 -72.7305 
0 4 2.41446e-007 0 0 -0 4.98225 -0.165661 4.5759e-012 0.00477396 0.00182688 58.3393 14.6606 -4.05742e-008 -1.82616e-006 1.55102 3.85715 -60.3516 14.1522 -1.0163e-006 -1.21268e-006 0.0734711 -8.35787 -34.6073 15.0911 -1.02492e-006 -8.60976e-007 4.79575 12.0436 28.3934 10.9093 -1.04568e-006 1.14524e-008 -6.52524 -1.48367 -0.20893 3.01571 3.42917 -3.53545 -87.428 -9.71685 -71.5328 3.94297 2.9942 5.64642 92.0571 1.15134 101.681 9.52287 -5.27399e-007 -4.62133e-007 -6.58424 0.486062 2.8796 1.06491 -0.579397 -6.50703e-007 0.0629371 -2.3538e-006 1.01711e-005 1.57195 0.0142924 0.0420831 6.95617 -0.377792 -0.162741 2.92562 0.0054469 -0.000749074 -0.993296 -0.153385 -0.0572716 4.60224 -0.16151 3.89377e-012 -178.947 2.20233e-005 -35.1382 12.9082 -4.49742e-008 4.77705e-007 -1.04946 -0.00115527 44.3657 13.2869 -4.05917e-007 3.74587e-007 1.55502 0.00118246 35.9805 13.0759 5.82245e-007 -9.59795e-007 3.18206 2.62694 54.7966 14.4221 1.7962e-006 -6.60793e-007 1.36345 -1.43922 44.3253 12.8984 7.42593e-007 4.77865e-006 -0.565469 3.56227 -54.4841 11.6821 6.52307e-007 -2.42119e-006 0.579495 0.64531 -72.5156 
